<svg xmlns="http://www.w3.org/2000/svg" xmlns:xlink="http://www.w3.org/1999/xlink" width="2050" zoomAndPan="magnify" viewBox="0 0 1537.5 585.000005" height="780" preserveAspectRatio="xMidYMid meet" version="1.0"><defs><clipPath id="173ddc1dd3"><path d="M 97.269531 43.503906 L 328.699219 43.503906 L 328.699219 277.179688 L 97.269531 277.179688 Z M 97.269531 43.503906 " clip-rule="nonzero"/></clipPath><clipPath id="99a8805a91"><path d="M 431.476562 43.503906 L 647.925781 43.503906 L 647.925781 277 L 431.476562 277 Z M 431.476562 43.503906 " clip-rule="nonzero"/></clipPath><clipPath id="3bfef7206e"><path d="M 976.253906 43.503906 L 1206.1875 43.503906 L 1206.1875 277 L 976.253906 277 Z M 976.253906 43.503906 " clip-rule="nonzero"/></clipPath><clipPath id="2491deca18"><path d="M 114.519531 307.011719 L 319.734375 307.011719 L 319.734375 540.6875 L 114.519531 540.6875 Z M 114.519531 307.011719 " clip-rule="nonzero"/></clipPath><clipPath id="9d8fdbea6c"><path d="M 323 307.011719 L 574 307.011719 L 574 540.6875 L 323 540.6875 Z M 323 307.011719 " clip-rule="nonzero"/></clipPath><clipPath id="40cf952432"><path d="M 578 307.011719 L 806 307.011719 L 806 540.6875 L 578 540.6875 Z M 578 307.011719 " clip-rule="nonzero"/></clipPath><clipPath id="5a6bb7d750"><path d="M 936.210938 307.011719 L 1222.316406 307.011719 L 1222.316406 540.6875 L 936.210938 540.6875 Z M 936.210938 307.011719 " clip-rule="nonzero"/></clipPath><clipPath id="ca30ae9c34"><path d="M 1236.464844 307.011719 L 1422.957031 307.011719 L 1422.957031 540.6875 L 1236.464844 540.6875 Z M 1236.464844 307.011719 " clip-rule="nonzero"/></clipPath><clipPath id="2ce39d7fc4"><path d="M 326 43.503906 L 427.191406 43.503906 L 427.191406 277.179688 L 326 277.179688 Z M 326 43.503906 " clip-rule="nonzero"/></clipPath><clipPath id="87b547503f"><path d="M 650.730469 43.503906 L 867.179688 43.503906 L 867.179688 277 L 650.730469 277 Z M 650.730469 43.503906 " clip-rule="nonzero"/></clipPath><clipPath id="381f263fb3"><path d="M 870 43.503906 L 971.84375 43.503906 L 971.84375 277.179688 L 870 277.179688 Z M 870 43.503906 " clip-rule="nonzero"/></clipPath><clipPath id="e97bbfe736"><path d="M 1209.105469 43.503906 L 1440.535156 43.503906 L 1440.535156 277.179688 L 1209.105469 277.179688 Z M 1209.105469 43.503906 " clip-rule="nonzero"/></clipPath><clipPath id="6369c4fe62"><path d="M 821 307.011719 L 922.191406 307.011719 L 922.191406 540.6875 L 821 540.6875 Z M 821 307.011719 " clip-rule="nonzero"/></clipPath></defs><g clip-path="url(#173ddc1dd3)"><path fill="#ffaf24" d="M 221.675781 277.070312 C 255.921875 277.070312 291.597656 266.574219 317.28125 249.085938 L 320.136719 247.140625 L 320.136719 148.164062 L 245.285156 148.164062 L 245.285156 203.480469 C 239.058594 205.554688 232.703125 206.589844 225.828125 206.589844 C 199.101562 206.589844 181.980469 188.453125 181.980469 160.339844 C 181.980469 131.449219 198.714844 114.089844 226.734375 114.089844 C 243.339844 114.089844 256.832031 120.695312 269.15625 135.078125 L 273.433594 140 L 328.699219 91.546875 L 324.804688 86.753906 C 301.714844 58.511719 266.558594 43.613281 223.230469 43.613281 C 187.816406 43.613281 155.773438 55.140625 132.941406 76.128906 C 109.980469 97.378906 97.269531 127.175781 97.269531 160.339844 C 97.269531 227.96875 149.546875 277.070312 221.675781 277.070312 Z M 221.675781 277.070312 " fill-opacity="1" fill-rule="nonzero"/></g><g clip-path="url(#99a8805a91)"><path fill="#ffaf24" d="M 583.480469 276.96875 L 583.480469 114.714844 L 647.925781 114.714844 L 647.925781 43.710938 L 431.476562 43.710938 L 431.476562 114.714844 L 495.925781 114.714844 L 495.925781 276.96875 Z M 583.480469 276.96875 " fill-opacity="1" fill-rule="nonzero"/></g><g clip-path="url(#3bfef7206e)"><path fill="#ffaf24" d="M 1120.636719 131.746094 L 1046.960938 43.796875 L 976.253906 43.796875 L 976.253906 276.882812 L 1061.941406 276.882812 L 1061.941406 188.9375 L 1135.480469 276.882812 L 1206.1875 276.882812 L 1206.1875 43.796875 L 1120.636719 43.796875 Z M 1120.636719 131.746094 " fill-opacity="1" fill-rule="nonzero"/></g><g clip-path="url(#2491deca18)"><path fill="#ffaf24" d="M 319.644531 463.011719 C 319.644531 408.160156 267.378906 397.785156 232.753906 390.785156 C 221.601562 388.578125 202.929688 384.820312 202.929688 380.929688 C 202.929688 375.871094 213.691406 374.183594 223.9375 374.183594 C 241.445312 374.183594 260.25 379.242188 279.832031 389.097656 L 286.054688 392.210938 L 312.25 329.058594 L 307.195312 326.203125 C 285.535156 314.015625 255.320312 307.011719 224.457031 307.011719 C 192.164062 307.011719 165.320312 314.664062 146.773438 329.316406 C 129.265625 343.0625 119.671875 362.644531 119.671875 384.6875 C 119.671875 439.800781 171.542969 450.5625 205.910156 457.695312 C 218.101562 460.289062 236.386719 464.050781 236.386719 468.460938 C 236.386719 471.441406 228.214844 473.386719 215.378906 473.386719 C 193.589844 473.386719 168.171875 466.386719 148.980469 454.972656 L 142.753906 451.210938 L 114.613281 515.011719 L 119.410156 517.996094 C 142.234375 532 178.675781 540.6875 214.730469 540.6875 C 246.890625 540.6875 273.863281 532.910156 292.410156 518.125 C 309.917969 504.378906 319.644531 484.800781 319.644531 463.011719 Z M 319.644531 463.011719 " fill-opacity="1" fill-rule="nonzero"/></g><g clip-path="url(#9d8fdbea6c)"><path fill="#ffaf24" d="M 538.097656 507.75 C 561.148438 486.355469 573.839844 456.53125 573.839844 423.851562 C 573.839844 391.171875 561.148438 361.347656 538.097656 339.949219 C 515.179688 318.683594 483.453125 307.011719 448.488281 307.011719 C 413.652344 307.011719 381.796875 318.683594 358.875 339.949219 C 335.828125 361.347656 323.136719 391.171875 323.136719 423.851562 C 323.136719 456.53125 335.828125 486.355469 358.875 507.75 C 381.796875 529.019531 413.652344 540.6875 448.488281 540.6875 C 483.453125 540.6875 515.179688 529.019531 538.097656 507.75 Z M 448.488281 377.554688 C 472.832031 377.554688 489.277344 396.101562 489.277344 423.851562 C 489.277344 451.601562 472.832031 470.144531 448.488281 470.144531 C 424.144531 470.144531 407.695312 451.601562 407.695312 423.851562 C 407.695312 396.101562 424.144531 377.554688 448.488281 377.554688 Z M 448.488281 377.554688 " fill-opacity="1" fill-rule="nonzero"/></g><g clip-path="url(#40cf952432)"><path fill="#ffaf24" d="M 702.246094 540.6875 C 745.144531 540.6875 779.617188 525.257812 802.035156 495.949219 L 805.664062 491.152344 L 751.105469 442.394531 L 746.828125 447.839844 C 734.90625 463.011719 721.816406 470.144531 705.875 470.144531 C 679.828125 470.144531 662.980469 451.992188 662.980469 423.851562 C 662.980469 395.710938 679.828125 377.554688 705.875 377.554688 C 721.945312 377.554688 734.90625 384.6875 746.828125 399.859375 L 751.105469 405.308594 L 805.664062 356.550781 L 802.035156 351.75 C 779.484375 322.445312 745.011719 307.011719 702.246094 307.011719 C 630.320312 307.011719 578.222656 356.160156 578.222656 423.851562 C 578.222656 491.542969 630.320312 540.6875 702.246094 540.6875 Z M 702.246094 540.6875 " fill-opacity="1" fill-rule="nonzero"/></g><g clip-path="url(#5a6bb7d750)"><path fill="#ffaf24" d="M 1041.457031 502.292969 L 1115.808594 502.292969 L 1130.625 540.648438 L 1222.316406 540.648438 L 1120.15625 307.054688 L 1038.371094 307.054688 L 936.210938 540.648438 L 1026.6875 540.648438 Z M 1078.65625 405.492188 L 1090.199219 435.296875 L 1067.160156 435.296875 Z M 1078.65625 405.492188 " fill-opacity="1" fill-rule="nonzero"/></g><g clip-path="url(#ca30ae9c34)"><path fill="#ffaf24" d="M 1422.957031 469.433594 L 1323.976562 469.433594 L 1323.976562 307.328125 L 1236.464844 307.328125 L 1236.464844 540.371094 L 1422.957031 540.371094 Z M 1422.957031 469.433594 " fill-opacity="1" fill-rule="nonzero"/></g><g clip-path="url(#2ce39d7fc4)"><path fill="#ffaf24" d="M 422.25 277.179688 L 331.292969 277.179688 C 330.96875 277.179688 330.644531 277.144531 330.320312 277.082031 C 330 277.015625 329.6875 276.921875 329.386719 276.796875 C 329.085938 276.671875 328.796875 276.519531 328.523438 276.335938 C 328.253906 276.15625 328 275.949219 327.769531 275.71875 C 327.539062 275.488281 327.332031 275.234375 327.148438 274.964844 C 326.96875 274.691406 326.8125 274.40625 326.6875 274.105469 C 326.5625 273.800781 326.46875 273.492188 326.402344 273.171875 C 326.339844 272.851562 326.304688 272.527344 326.304688 272.199219 L 326.304688 251.636719 C 326.304688 251.308594 326.335938 250.984375 326.398438 250.664062 C 326.464844 250.34375 326.558594 250.03125 326.683594 249.730469 C 326.808594 249.425781 326.960938 249.140625 327.144531 248.867188 C 327.324219 248.59375 327.53125 248.34375 327.761719 248.109375 C 327.996094 247.878906 328.246094 247.671875 328.519531 247.488281 C 328.792969 247.308594 329.078125 247.152344 329.382812 247.027344 C 329.6875 246.902344 330 246.808594 330.320312 246.746094 C 330.640625 246.679688 330.964844 246.648438 331.292969 246.648438 L 345.210938 246.648438 L 345.210938 74.03125 L 331.292969 74.03125 C 330.964844 74.03125 330.640625 74 330.320312 73.9375 C 330 73.871094 329.6875 73.777344 329.382812 73.652344 C 329.082031 73.527344 328.792969 73.375 328.519531 73.191406 C 328.246094 73.007812 327.996094 72.800781 327.761719 72.570312 C 327.53125 72.339844 327.324219 72.085938 327.144531 71.816406 C 326.960938 71.542969 326.808594 71.253906 326.683594 70.953125 C 326.558594 70.648438 326.464844 70.339844 326.398438 70.015625 C 326.335938 69.695312 326.304688 69.371094 326.304688 69.042969 L 326.304688 48.480469 C 326.304688 48.152344 326.335938 47.828125 326.402344 47.507812 C 326.464844 47.1875 326.558594 46.878906 326.6875 46.574219 C 326.8125 46.273438 326.964844 45.988281 327.148438 45.714844 C 327.328125 45.441406 327.535156 45.191406 327.765625 44.960938 C 328 44.730469 328.25 44.523438 328.523438 44.339844 C 328.796875 44.160156 329.082031 44.007812 329.386719 43.882812 C 329.6875 43.757812 330 43.660156 330.320312 43.597656 C 330.640625 43.535156 330.96875 43.503906 331.292969 43.503906 L 422.25 43.503906 C 422.578125 43.503906 422.902344 43.535156 423.222656 43.597656 C 423.546875 43.660156 423.855469 43.757812 424.160156 43.882812 C 424.460938 44.007812 424.75 44.160156 425.023438 44.339844 C 425.292969 44.523438 425.546875 44.730469 425.777344 44.960938 C 426.011719 45.191406 426.214844 45.441406 426.398438 45.714844 C 426.582031 45.988281 426.734375 46.273438 426.859375 46.574219 C 426.984375 46.878906 427.078125 47.1875 427.144531 47.507812 C 427.207031 47.828125 427.238281 48.152344 427.238281 48.480469 L 427.238281 69.042969 C 427.238281 69.371094 427.207031 69.695312 427.144531 70.015625 C 427.082031 70.339844 426.988281 70.648438 426.863281 70.953125 C 426.738281 71.253906 426.585938 71.542969 426.402344 71.816406 C 426.21875 72.085938 426.011719 72.339844 425.78125 72.570312 C 425.550781 72.800781 425.296875 73.007812 425.027344 73.191406 C 424.753906 73.375 424.464844 73.527344 424.164062 73.652344 C 423.859375 73.777344 423.546875 73.871094 423.226562 73.9375 C 422.902344 74 422.578125 74.03125 422.25 74.03125 L 408.332031 74.03125 L 408.332031 246.699219 L 422.230469 246.699219 C 422.558594 246.699219 422.882812 246.730469 423.203125 246.796875 C 423.527344 246.859375 423.839844 246.953125 424.140625 247.078125 C 424.445312 247.203125 424.734375 247.359375 425.003906 247.539062 C 425.277344 247.722656 425.53125 247.929688 425.761719 248.160156 C 425.992188 248.394531 426.199219 248.644531 426.382812 248.917969 C 426.5625 249.191406 426.71875 249.476562 426.84375 249.78125 C 426.96875 250.082031 427.0625 250.394531 427.125 250.714844 C 427.1875 251.035156 427.21875 251.359375 427.21875 251.6875 L 427.21875 272.199219 C 427.21875 272.527344 427.1875 272.847656 427.121094 273.167969 C 427.058594 273.488281 426.964844 273.796875 426.839844 274.097656 C 426.714844 274.402344 426.558594 274.6875 426.378906 274.957031 C 426.199219 275.230469 425.992188 275.480469 425.761719 275.710938 C 425.53125 275.941406 425.28125 276.148438 425.011719 276.328125 C 424.738281 276.511719 424.453125 276.664062 424.152344 276.792969 C 423.851562 276.917969 423.539062 277.011719 423.21875 277.078125 C 422.902344 277.144531 422.578125 277.175781 422.25 277.179688 Z M 422.25 277.179688 " fill-opacity="1" fill-rule="nonzero"/></g><g clip-path="url(#87b547503f)"><path fill="#ffaf24" d="M 802.730469 276.96875 L 802.730469 114.714844 L 867.179688 114.714844 L 867.179688 43.710938 L 650.730469 43.710938 L 650.730469 114.714844 L 715.179688 114.714844 L 715.179688 276.96875 Z M 802.730469 276.96875 " fill-opacity="1" fill-rule="nonzero"/></g><g clip-path="url(#381f263fb3)"><path fill="#ffaf24" d="M 966.898438 277.179688 L 875.945312 277.179688 C 875.617188 277.179688 875.292969 277.144531 874.972656 277.082031 C 874.648438 277.015625 874.339844 276.921875 874.035156 276.796875 C 873.734375 276.671875 873.445312 276.519531 873.175781 276.335938 C 872.902344 276.15625 872.652344 275.949219 872.417969 275.71875 C 872.1875 275.488281 871.980469 275.234375 871.796875 274.964844 C 871.617188 274.691406 871.464844 274.40625 871.335938 274.105469 C 871.210938 273.800781 871.117188 273.492188 871.050781 273.171875 C 870.988281 272.851562 870.957031 272.527344 870.953125 272.199219 L 870.953125 251.636719 C 870.953125 251.308594 870.984375 250.984375 871.050781 250.664062 C 871.113281 250.34375 871.207031 250.03125 871.332031 249.730469 C 871.457031 249.425781 871.609375 249.140625 871.792969 248.867188 C 871.972656 248.59375 872.179688 248.34375 872.414062 248.109375 C 872.644531 247.878906 872.894531 247.671875 873.167969 247.488281 C 873.441406 247.308594 873.730469 247.152344 874.03125 247.027344 C 874.335938 246.902344 874.648438 246.808594 874.96875 246.746094 C 875.289062 246.679688 875.617188 246.648438 875.945312 246.648438 L 889.859375 246.648438 L 889.859375 74.03125 L 875.945312 74.03125 C 875.617188 74.03125 875.289062 74 874.96875 73.9375 C 874.648438 73.871094 874.335938 73.777344 874.03125 73.652344 C 873.730469 73.527344 873.441406 73.375 873.167969 73.191406 C 872.894531 73.007812 872.644531 72.800781 872.414062 72.570312 C 872.179688 72.339844 871.972656 72.085938 871.792969 71.816406 C 871.609375 71.542969 871.457031 71.253906 871.332031 70.953125 C 871.207031 70.648438 871.113281 70.339844 871.050781 70.015625 C 870.984375 69.695312 870.953125 69.371094 870.953125 69.042969 L 870.953125 48.480469 C 870.953125 48.152344 870.988281 47.828125 871.050781 47.507812 C 871.113281 47.1875 871.210938 46.878906 871.335938 46.574219 C 871.460938 46.273438 871.613281 45.988281 871.796875 45.714844 C 871.976562 45.441406 872.183594 45.191406 872.414062 44.960938 C 872.648438 44.730469 872.898438 44.523438 873.171875 44.339844 C 873.445312 44.160156 873.730469 44.007812 874.035156 43.882812 C 874.335938 43.757812 874.648438 43.660156 874.96875 43.597656 C 875.292969 43.535156 875.617188 43.503906 875.945312 43.503906 L 966.898438 43.503906 C 967.226562 43.503906 967.550781 43.535156 967.871094 43.597656 C 968.195312 43.660156 968.507812 43.757812 968.808594 43.882812 C 969.113281 44.007812 969.398438 44.160156 969.671875 44.339844 C 969.945312 44.523438 970.195312 44.730469 970.425781 44.960938 C 970.660156 45.191406 970.867188 45.441406 971.046875 45.714844 C 971.230469 45.988281 971.382812 46.273438 971.507812 46.574219 C 971.632812 46.878906 971.730469 47.1875 971.792969 47.507812 C 971.855469 47.828125 971.886719 48.152344 971.886719 48.480469 L 971.886719 69.042969 C 971.890625 69.371094 971.859375 69.695312 971.792969 70.015625 C 971.730469 70.339844 971.636719 70.648438 971.511719 70.953125 C 971.386719 71.253906 971.234375 71.542969 971.050781 71.816406 C 970.871094 72.085938 970.664062 72.339844 970.429688 72.570312 C 970.199219 72.800781 969.945312 73.007812 969.675781 73.191406 C 969.402344 73.375 969.113281 73.527344 968.8125 73.652344 C 968.507812 73.777344 968.195312 73.871094 967.875 73.9375 C 967.550781 74 967.226562 74.03125 966.898438 74.03125 L 952.984375 74.03125 L 952.984375 246.699219 L 966.878906 246.699219 C 967.207031 246.699219 967.53125 246.730469 967.855469 246.796875 C 968.175781 246.859375 968.488281 246.953125 968.789062 247.078125 C 969.09375 247.203125 969.382812 247.359375 969.652344 247.539062 C 969.925781 247.722656 970.179688 247.929688 970.410156 248.160156 C 970.640625 248.394531 970.847656 248.644531 971.03125 248.917969 C 971.210938 249.191406 971.367188 249.476562 971.492188 249.78125 C 971.617188 250.082031 971.710938 250.394531 971.773438 250.714844 C 971.835938 251.035156 971.867188 251.359375 971.867188 251.6875 L 971.867188 272.199219 C 971.867188 272.527344 971.835938 272.847656 971.769531 273.167969 C 971.707031 273.488281 971.613281 273.796875 971.488281 274.097656 C 971.363281 274.402344 971.210938 274.6875 971.027344 274.957031 C 970.847656 275.230469 970.640625 275.480469 970.410156 275.710938 C 970.179688 275.941406 969.929688 276.148438 969.660156 276.328125 C 969.386719 276.511719 969.101562 276.664062 968.800781 276.792969 C 968.5 276.917969 968.1875 277.011719 967.871094 277.078125 C 967.550781 277.144531 967.226562 277.175781 966.898438 277.179688 Z M 966.898438 277.179688 " fill-opacity="1" fill-rule="nonzero"/></g><g clip-path="url(#e97bbfe736)"><path fill="#ffaf24" d="M 1333.511719 277.070312 C 1367.757812 277.070312 1403.433594 266.574219 1429.117188 249.085938 L 1431.972656 247.140625 L 1431.972656 148.164062 L 1357.121094 148.164062 L 1357.121094 203.480469 C 1350.894531 205.554688 1344.535156 206.589844 1337.660156 206.589844 C 1310.9375 206.589844 1293.8125 188.453125 1293.8125 160.339844 C 1293.8125 131.449219 1310.550781 114.089844 1338.570312 114.089844 C 1355.175781 114.089844 1368.664062 120.695312 1380.988281 135.078125 L 1385.269531 140 L 1440.535156 91.546875 L 1436.640625 86.753906 C 1413.550781 58.511719 1378.394531 43.613281 1335.066406 43.613281 C 1299.652344 43.613281 1267.609375 55.140625 1244.777344 76.128906 C 1221.816406 97.378906 1209.105469 127.175781 1209.105469 160.339844 C 1209.105469 227.96875 1261.382812 277.070312 1333.511719 277.070312 Z M 1333.511719 277.070312 " fill-opacity="1" fill-rule="nonzero"/></g><g clip-path="url(#6369c4fe62)"><path fill="#ffaf24" d="M 917.25 540.6875 L 826.292969 540.6875 C 825.964844 540.6875 825.640625 540.65625 825.320312 540.59375 C 825 540.527344 824.6875 540.433594 824.386719 540.308594 C 824.082031 540.183594 823.796875 540.027344 823.523438 539.847656 C 823.253906 539.664062 823 539.460938 822.769531 539.226562 C 822.539062 538.996094 822.332031 538.746094 822.148438 538.472656 C 821.964844 538.203125 821.8125 537.917969 821.6875 537.613281 C 821.5625 537.3125 821.464844 537 821.402344 536.679688 C 821.339844 536.359375 821.304688 536.039062 821.304688 535.710938 L 821.304688 515.148438 C 821.304688 514.820312 821.335938 514.496094 821.398438 514.175781 C 821.460938 513.855469 821.554688 513.542969 821.679688 513.238281 C 821.808594 512.9375 821.960938 512.648438 822.140625 512.375 C 822.324219 512.105469 822.53125 511.851562 822.761719 511.621094 C 822.992188 511.390625 823.246094 511.183594 823.519531 511 C 823.792969 510.816406 824.078125 510.664062 824.382812 510.539062 C 824.683594 510.414062 824.996094 510.320312 825.320312 510.253906 C 825.640625 510.191406 825.964844 510.160156 826.292969 510.160156 L 840.210938 510.160156 L 840.210938 337.542969 L 826.292969 337.542969 C 825.964844 337.542969 825.640625 337.511719 825.320312 337.445312 C 824.996094 337.382812 824.683594 337.289062 824.382812 337.164062 C 824.078125 337.039062 823.792969 336.882812 823.519531 336.703125 C 823.246094 336.519531 822.992188 336.3125 822.761719 336.082031 C 822.53125 335.851562 822.324219 335.597656 822.140625 335.324219 C 821.960938 335.054688 821.808594 334.765625 821.683594 334.460938 C 821.554688 334.160156 821.460938 333.847656 821.398438 333.527344 C 821.335938 333.207031 821.304688 332.882812 821.304688 332.554688 L 821.304688 311.992188 C 821.304688 311.664062 821.335938 311.339844 821.402344 311.019531 C 821.464844 310.699219 821.558594 310.386719 821.683594 310.085938 C 821.808594 309.785156 821.964844 309.496094 822.144531 309.226562 C 822.328125 308.953125 822.535156 308.703125 822.765625 308.472656 C 822.996094 308.238281 823.25 308.035156 823.523438 307.851562 C 823.792969 307.671875 824.082031 307.515625 824.382812 307.390625 C 824.6875 307.265625 825 307.171875 825.320312 307.109375 C 825.640625 307.042969 825.964844 307.011719 826.292969 307.011719 L 917.25 307.011719 C 917.578125 307.011719 917.902344 307.042969 918.222656 307.109375 C 918.542969 307.171875 918.855469 307.265625 919.160156 307.390625 C 919.460938 307.515625 919.75 307.671875 920.019531 307.851562 C 920.292969 308.035156 920.546875 308.238281 920.777344 308.472656 C 921.007812 308.703125 921.214844 308.953125 921.398438 309.226562 C 921.578125 309.496094 921.734375 309.785156 921.859375 310.085938 C 921.984375 310.386719 922.078125 310.699219 922.140625 311.019531 C 922.207031 311.339844 922.238281 311.664062 922.238281 311.992188 L 922.238281 332.554688 C 922.238281 332.882812 922.207031 333.207031 922.144531 333.527344 C 922.082031 333.847656 921.988281 334.160156 921.863281 334.460938 C 921.738281 334.765625 921.582031 335.054688 921.402344 335.324219 C 921.21875 335.597656 921.011719 335.851562 920.78125 336.082031 C 920.550781 336.3125 920.296875 336.519531 920.023438 336.703125 C 919.75 336.882812 919.464844 337.039062 919.160156 337.164062 C 918.859375 337.289062 918.546875 337.382812 918.222656 337.445312 C 917.902344 337.511719 917.578125 337.542969 917.25 337.542969 L 903.332031 337.542969 L 903.332031 510.210938 L 917.230469 510.210938 C 917.558594 510.210938 917.882812 510.242188 918.203125 510.304688 C 918.527344 510.371094 918.835938 510.464844 919.140625 510.589844 C 919.445312 510.714844 919.730469 510.867188 920.003906 511.050781 C 920.277344 511.234375 920.527344 511.441406 920.761719 511.671875 C 920.992188 511.902344 921.199219 512.15625 921.378906 512.425781 C 921.5625 512.699219 921.714844 512.988281 921.839844 513.289062 C 921.964844 513.59375 922.058594 513.90625 922.125 514.226562 C 922.1875 514.546875 922.21875 514.871094 922.21875 515.199219 L 922.21875 535.710938 C 922.21875 536.035156 922.183594 536.359375 922.121094 536.679688 C 922.058594 537 921.960938 537.308594 921.835938 537.609375 C 921.710938 537.910156 921.558594 538.195312 921.378906 538.46875 C 921.199219 538.738281 920.992188 538.992188 920.761719 539.222656 C 920.53125 539.453125 920.28125 539.660156 920.007812 539.839844 C 919.738281 540.023438 919.453125 540.175781 919.152344 540.300781 C 918.851562 540.429688 918.539062 540.523438 918.21875 540.589844 C 917.898438 540.652344 917.578125 540.6875 917.25 540.6875 Z M 917.25 540.6875 " fill-opacity="1" fill-rule="nonzero"/></g></svg>